<svg xmlns="http://www.w3.org/2000/svg" xmlns:xlink="http://www.w3.org/1999/xlink" width="373" zoomAndPan="magnify" viewBox="0 0 279.75 74.999997" height="100" preserveAspectRatio="xMidYMid meet" version="1.0"><defs><g/><clipPath id="48945e2460"><path d="M 12.65625 0.132812 L 67.902344 0.132812 L 67.902344 74.964844 L 12.65625 74.964844 Z M 12.65625 0.132812 " clip-rule="nonzero"/></clipPath></defs><g clip-path="url(#48945e2460)"><path fill="#ffffff" d="M 65.109375 41.953125 L 64.984375 41.988281 C 58.402344 43.769531 53.808594 49.789062 53.808594 56.625 C 53.808594 60.675781 55.382812 64.484375 58.238281 67.347656 C 60.125 69.238281 62.476562 70.601562 65.039062 71.285156 C 65.042969 71.285156 65.050781 71.289062 65.058594 71.289062 L 65.1875 71.328125 Z M 65.089844 35.078125 C 65.078125 30.753906 65.070312 27.894531 65.070312 27.824219 L 65.070312 27.820312 C 65.070312 14.113281 53.949219 2.960938 40.28125 2.960938 C 33.65625 2.960938 27.425781 5.546875 22.742188 10.242188 C 18.058594 14.9375 15.480469 21.179688 15.480469 27.816406 L 15.53125 47.644531 C 15.53125 61.1875 26.519531 72.207031 40.027344 72.207031 L 59.960938 72.207031 L 59.652344 72.015625 C 58.394531 71.253906 57.25 70.355469 56.242188 69.347656 C 52.855469 65.949219 50.988281 61.433594 50.988281 56.625 C 50.988281 48.441406 56.5 41.28125 64.390625 39.214844 C 64.582031 39.164062 64.78125 39.15625 64.984375 39.191406 L 65.101562 39.214844 Z M 66.605469 75.035156 L 40.027344 75.035156 C 24.964844 75.035156 12.710938 62.746094 12.710938 47.644531 L 12.660156 27.820312 C 12.660156 20.425781 15.53125 13.472656 20.746094 8.242188 C 25.964844 3.011719 32.902344 0.132812 40.28125 0.132812 C 55.472656 0.132812 67.839844 12.496094 67.890625 27.71875 L 67.835938 27.71875 L 67.847656 27.828125 C 67.894531 28.332031 67.894531 28.972656 67.898438 29.78125 L 68.015625 73.617188 C 68.015625 73.996094 67.867188 74.351562 67.601562 74.617188 C 67.335938 74.886719 66.980469 75.035156 66.605469 75.035156 " fill-opacity="1" fill-rule="nonzero"/></g><path fill="#ffffff" d="M 60.085938 23.675781 C 59.535156 19.277344 55.964844 15.644531 51.589844 15.035156 C 51.113281 14.96875 50.628906 14.933594 50.15625 14.933594 C 46.972656 14.933594 44.054688 16.402344 42.144531 18.957031 C 41.699219 19.554688 41.03125 19.898438 40.308594 19.898438 C 39.589844 19.898438 38.921875 19.554688 38.472656 18.957031 C 36.5625 16.402344 33.644531 14.933594 30.460938 14.933594 C 29.984375 14.933594 29.5 14.96875 29.023438 15.035156 C 24.664062 15.644531 21.183594 19.121094 20.554688 23.488281 C 20.167969 26.191406 20.847656 28.863281 22.464844 31.007812 C 24.066406 33.132812 26.488281 34.558594 29.113281 34.914062 L 50.8125 35.015625 L 50.8125 34.980469 C 53.539062 34.800781 56.101562 33.496094 57.855469 31.386719 C 59.644531 29.234375 60.441406 26.492188 60.085938 23.675781 Z M 51.257812 37.390625 L 51.246094 37.394531 C 51.070312 37.433594 50.890625 37.453125 50.710938 37.453125 L 29.113281 37.351562 C 29.003906 37.351562 28.894531 37.34375 28.789062 37.332031 C 25.523438 36.886719 22.511719 35.121094 20.523438 32.476562 C 18.511719 29.808594 17.667969 26.492188 18.148438 23.140625 C 18.925781 17.703125 23.261719 13.378906 28.6875 12.621094 C 29.277344 12.535156 29.875 12.496094 30.460938 12.496094 C 34.296875 12.496094 37.859375 14.226562 40.230469 17.246094 L 40.308594 17.347656 L 40.386719 17.246094 C 42.761719 14.226562 46.320312 12.496094 50.15625 12.496094 C 50.742188 12.496094 51.335938 12.535156 51.921875 12.617188 C 57.457031 13.386719 61.804688 17.808594 62.5 23.371094 C 62.9375 26.867188 61.953125 30.269531 59.722656 32.949219 C 57.617188 35.480469 54.53125 37.101562 51.257812 37.390625 " fill-opacity="1" fill-rule="nonzero"/><path fill="#ffffff" d="M 26.808594 26.480469 L 26.808594 23.101562 L 30.175781 23.101562 C 31.6875 23.101562 32.917969 24.335938 32.917969 25.851562 L 32.917969 29.230469 L 29.550781 29.230469 C 28.039062 29.230469 26.808594 27.996094 26.808594 26.480469 " fill-opacity="1" fill-rule="nonzero"/><path fill="#ffffff" d="M 51.066406 29.230469 L 47.699219 29.230469 L 47.699219 25.851562 C 47.699219 24.335938 48.929688 23.101562 50.441406 23.101562 L 53.808594 23.101562 L 53.808594 26.480469 C 53.808594 27.996094 52.578125 29.230469 51.066406 29.230469 " fill-opacity="1" fill-rule="nonzero"/><path fill="#ffffff" d="M 40.707031 33.457031 C 40.621094 33.601562 40.472656 33.6875 40.308594 33.6875 C 40.144531 33.6875 39.996094 33.601562 39.914062 33.457031 L 38.140625 30.421875 C 38.03125 30.234375 38.0625 30 38.21875 29.851562 L 39.992188 28.175781 C 40.171875 28.007812 40.449219 28.007812 40.625 28.175781 L 42.398438 29.851562 C 42.554688 30 42.585938 30.234375 42.480469 30.421875 L 40.707031 33.457031 " fill-opacity="1" fill-rule="nonzero"/><path fill="#ffffff" d="M 46.738281 45.492188 C 47.792969 45.492188 48.652344 46.351562 48.652344 47.410156 L 48.652344 50.769531 C 48.652344 51.828125 47.792969 52.6875 46.738281 52.6875 C 45.683594 52.6875 44.824219 51.828125 44.824219 50.769531 L 44.824219 47.410156 C 44.824219 46.351562 45.683594 45.492188 46.738281 45.492188 " fill-opacity="1" fill-rule="nonzero"/><path fill="#ffffff" d="M 27.558594 45.492188 C 28.613281 45.492188 29.472656 46.351562 29.472656 47.410156 L 29.472656 50.769531 C 29.472656 51.828125 28.613281 52.6875 27.558594 52.6875 C 26.503906 52.6875 25.644531 51.828125 25.644531 50.769531 L 25.644531 47.410156 C 25.644531 46.351562 26.503906 45.492188 27.558594 45.492188 " fill-opacity="1" fill-rule="nonzero"/><path fill="#ffffff" d="M 37.148438 45.492188 C 38.203125 45.492188 39.0625 46.351562 39.0625 47.410156 L 39.0625 50.769531 C 39.0625 51.828125 38.203125 52.6875 37.148438 52.6875 C 36.09375 52.6875 35.234375 51.828125 35.234375 50.769531 L 35.234375 47.410156 C 35.234375 46.351562 36.09375 45.492188 37.148438 45.492188 " fill-opacity="1" fill-rule="nonzero"/><path fill="#ffffff" d="M 41.941406 55.539062 C 43 55.539062 43.855469 56.398438 43.855469 57.457031 L 43.855469 60.816406 C 43.855469 61.875 43 62.734375 41.941406 62.734375 C 40.886719 62.734375 40.027344 61.875 40.027344 60.816406 L 40.027344 57.457031 C 40.027344 56.398438 40.886719 55.539062 41.941406 55.539062 " fill-opacity="1" fill-rule="nonzero"/><path fill="#ffffff" d="M 32.351562 55.539062 C 33.410156 55.539062 34.265625 56.398438 34.265625 57.457031 L 34.265625 60.816406 C 34.265625 61.875 33.410156 62.734375 32.351562 62.734375 C 31.296875 62.734375 30.4375 61.875 30.4375 60.816406 L 30.4375 57.457031 C 30.4375 56.398438 31.296875 55.539062 32.351562 55.539062 " fill-opacity="1" fill-rule="nonzero"/><g fill="#ffffff" fill-opacity="1"><g transform="translate(80.278151, 61.380277)"><g><path d="M 17.640625 -3.453125 L 18.484375 -0.640625 C 18.109375 -0.359375 17.648438 -0.140625 17.109375 0.015625 C 16.578125 0.171875 16.015625 0.25 15.421875 0.25 C 13.335938 0.25 11.703125 -0.664062 10.515625 -2.5 L 7.65625 -6.90625 C 7.351562 -7.363281 7.046875 -7.6875 6.734375 -7.875 C 6.421875 -8.0625 6.078125 -8.15625 5.703125 -8.15625 L 5.5625 -8.15625 L 5.5625 0 L 2.03125 0 L 2.03125 -19.765625 L 8.1875 -19.765625 C 10.6875 -19.765625 12.582031 -19.242188 13.875 -18.203125 C 15.164062 -17.160156 15.8125 -15.734375 15.8125 -13.921875 C 15.8125 -12.816406 15.566406 -11.867188 15.078125 -11.078125 C 14.597656 -10.296875 13.941406 -9.671875 13.109375 -9.203125 C 12.273438 -8.742188 11.328125 -8.453125 10.265625 -8.328125 C 10.828125 -8.023438 11.335938 -7.519531 11.796875 -6.8125 L 13.359375 -4.515625 C 13.765625 -3.921875 14.148438 -3.507812 14.515625 -3.28125 C 14.878906 -3.0625 15.335938 -2.953125 15.890625 -2.953125 C 16.535156 -2.953125 17.117188 -3.117188 17.640625 -3.453125 Z M 7.9375 -16.8125 L 5.5625 -16.8125 L 5.5625 -10.984375 L 7.765625 -10.984375 C 9.285156 -10.984375 10.40625 -11.21875 11.125 -11.6875 C 11.851562 -12.15625 12.21875 -12.898438 12.21875 -13.921875 C 12.21875 -15.847656 10.789062 -16.8125 7.9375 -16.8125 Z M 7.9375 -16.8125 "/></g></g></g><g fill="#ffffff" fill-opacity="1"><g transform="translate(97.859961, 61.380277)"><g><path d="M -0.28125 0 L 8.15625 -19.765625 L 11.21875 -19.765625 L 19.3125 0 L 15.640625 0 L 13.859375 -4.515625 L 5.234375 -4.515625 L 3.390625 0 Z M 6.484375 -7.546875 L 12.6875 -7.546875 L 9.625 -15.3125 Z M 6.484375 -7.546875 "/></g></g></g><g fill="#ffffff" fill-opacity="1"><g transform="translate(117.138745, 61.380277)"><g><path d="M 1.921875 0 L 2.671875 -19.765625 L 5.8125 -19.765625 L 13.046875 -4.53125 L 20.265625 -19.765625 L 23.40625 -19.765625 L 24.015625 0 L 20.53125 0 L 20.140625 -12.296875 L 14.28125 0 L 11.546875 0 L 5.765625 -12.21875 L 5.265625 0 Z M 1.921875 0 "/></g></g></g><g fill="#ffffff" fill-opacity="1"><g transform="translate(143.261059, 61.380277)"><g><path d="M -0.28125 0 L 8.15625 -19.765625 L 11.21875 -19.765625 L 19.3125 0 L 15.640625 0 L 13.859375 -4.515625 L 5.234375 -4.515625 L 3.390625 0 Z M 6.484375 -7.546875 L 12.6875 -7.546875 L 9.625 -15.3125 Z M 6.484375 -7.546875 "/></g></g></g><g fill="#ffffff" fill-opacity="1"><g transform="translate(162.539844, 61.380277)"><g><path d="M 18.78125 -3.84375 C 18 -2.519531 16.921875 -1.503906 15.546875 -0.796875 C 14.179688 -0.0976562 12.644531 0.25 10.9375 0.25 C 8.914062 0.25 7.179688 -0.140625 5.734375 -0.921875 C 4.285156 -1.703125 3.175781 -2.816406 2.40625 -4.265625 C 1.632812 -5.722656 1.25 -7.460938 1.25 -9.484375 C 1.25 -11.585938 1.675781 -13.425781 2.53125 -15 C 3.382812 -16.570312 4.570312 -17.800781 6.09375 -18.6875 C 7.613281 -19.582031 9.375 -20.03125 11.375 -20.03125 C 13.082031 -20.03125 14.546875 -19.707031 15.765625 -19.0625 C 16.984375 -18.414062 18 -17.429688 18.8125 -16.109375 L 16.03125 -14.109375 C 15.53125 -15.035156 14.867188 -15.710938 14.046875 -16.140625 C 13.234375 -16.566406 12.335938 -16.78125 11.359375 -16.78125 C 10.097656 -16.78125 8.984375 -16.472656 8.015625 -15.859375 C 7.046875 -15.242188 6.285156 -14.394531 5.734375 -13.3125 C 5.191406 -12.226562 4.921875 -10.972656 4.921875 -9.546875 C 4.921875 -7.484375 5.453125 -5.875 6.515625 -4.71875 C 7.585938 -3.570312 9.078125 -3 10.984375 -3 C 12.046875 -3 13.019531 -3.238281 13.90625 -3.71875 C 14.800781 -4.207031 15.523438 -4.941406 16.078125 -5.921875 Z M 18.78125 -3.84375 "/></g></g></g><g fill="#ffffff" fill-opacity="1"><g transform="translate(181.262245, 61.380277)"><g><path d="M 18.78125 -3.84375 C 18 -2.519531 16.921875 -1.503906 15.546875 -0.796875 C 14.179688 -0.0976562 12.644531 0.25 10.9375 0.25 C 8.914062 0.25 7.179688 -0.140625 5.734375 -0.921875 C 4.285156 -1.703125 3.175781 -2.816406 2.40625 -4.265625 C 1.632812 -5.722656 1.25 -7.460938 1.25 -9.484375 C 1.25 -11.585938 1.675781 -13.425781 2.53125 -15 C 3.382812 -16.570312 4.570312 -17.800781 6.09375 -18.6875 C 7.613281 -19.582031 9.375 -20.03125 11.375 -20.03125 C 13.082031 -20.03125 14.546875 -19.707031 15.765625 -19.0625 C 16.984375 -18.414062 18 -17.429688 18.8125 -16.109375 L 16.03125 -14.109375 C 15.53125 -15.035156 14.867188 -15.710938 14.046875 -16.140625 C 13.234375 -16.566406 12.335938 -16.78125 11.359375 -16.78125 C 10.097656 -16.78125 8.984375 -16.472656 8.015625 -15.859375 C 7.046875 -15.242188 6.285156 -14.394531 5.734375 -13.3125 C 5.191406 -12.226562 4.921875 -10.972656 4.921875 -9.546875 C 4.921875 -7.484375 5.453125 -5.875 6.515625 -4.71875 C 7.585938 -3.570312 9.078125 -3 10.984375 -3 C 12.046875 -3 13.019531 -3.238281 13.90625 -3.71875 C 14.800781 -4.207031 15.523438 -4.941406 16.078125 -5.921875 Z M 18.78125 -3.84375 "/></g></g></g><g fill="#ffffff" fill-opacity="1"><g transform="translate(199.984639, 61.380277)"><g><path d="M 2.03125 0 L 2.03125 -19.765625 L 5.65625 -19.765625 L 5.65625 0 Z M 2.03125 0 "/></g></g></g><g fill="#ffffff" fill-opacity="1"><g transform="translate(207.801905, 61.380277)"><g><path d="M 10.828125 0.25 C 8.816406 0.269531 7.097656 -0.101562 5.671875 -0.875 C 4.242188 -1.644531 3.148438 -2.757812 2.390625 -4.21875 C 1.628906 -5.6875 1.25 -7.453125 1.25 -9.515625 C 1.25 -11.578125 1.65625 -13.398438 2.46875 -14.984375 C 3.289062 -16.566406 4.445312 -17.800781 5.9375 -18.6875 C 7.4375 -19.582031 9.207031 -20.03125 11.25 -20.03125 C 13.0625 -20.03125 14.65625 -19.625 16.03125 -18.8125 C 17.40625 -18 18.472656 -16.863281 19.234375 -15.40625 C 19.992188 -13.945312 20.375 -12.234375 20.375 -10.265625 C 20.375 -8.128906 19.957031 -6.273438 19.125 -4.703125 C 18.300781 -3.140625 17.171875 -1.921875 15.734375 -1.046875 C 14.296875 -0.179688 12.660156 0.25 10.828125 0.25 Z M 10.71875 -3 C 11.882812 -3 12.914062 -3.285156 13.8125 -3.859375 C 14.71875 -4.441406 15.425781 -5.269531 15.9375 -6.34375 C 16.445312 -7.414062 16.703125 -8.722656 16.703125 -10.265625 C 16.703125 -12.253906 16.195312 -13.84375 15.1875 -15.03125 C 14.1875 -16.21875 12.84375 -16.8125 11.15625 -16.8125 C 9.945312 -16.8125 8.875 -16.503906 7.9375 -15.890625 C 7.007812 -15.273438 6.273438 -14.429688 5.734375 -13.359375 C 5.191406 -12.285156 4.921875 -11.023438 4.921875 -9.578125 C 4.921875 -7.472656 5.4375 -5.847656 6.46875 -4.703125 C 7.5 -3.566406 8.914062 -3 10.71875 -3 Z M 10.71875 -3 "/></g></g></g><g fill="#ffffff" fill-opacity="1"><g transform="translate(229.556593, 61.380277)"><g><path d="M 16.359375 -19.765625 L 15.921875 -16.578125 L 9.796875 -16.578125 L 9.796875 0 L 6.171875 0 L 6.171875 -16.578125 L -0.171875 -16.578125 L -0.171875 -19.765625 Z M 16.359375 -19.765625 "/></g></g></g><g fill="#ffffff" fill-opacity="1"><g transform="translate(245.663985, 61.380277)"><g><path d="M 16.359375 -19.765625 L 15.921875 -16.578125 L 9.796875 -16.578125 L 9.796875 0 L 6.171875 0 L 6.171875 -16.578125 L -0.171875 -16.578125 L -0.171875 -19.765625 Z M 16.359375 -19.765625 "/></g></g></g><g fill="#ffffff" fill-opacity="1"><g transform="translate(261.771378, 61.380277)"><g><path d="M 2.03125 0 L 2.03125 -19.765625 L 5.65625 -19.765625 L 5.65625 0 Z M 2.03125 0 "/></g></g></g><g fill="#ffffff" fill-opacity="1"><g transform="translate(79.529135, 32.949865)"><g><path d="M 2.046875 0 L 2.90625 -19.421875 L 4.953125 -19.421875 L 12.53125 -2.546875 L 20.125 -19.421875 L 22.171875 -19.421875 L 22.890625 0 L 20.921875 0 L 20.3125 -15.375 L 13.34375 0 L 11.5625 0 L 4.703125 -15.3125 L 4.015625 0 Z M 2.046875 0 "/></g></g></g><g fill="#ffffff" fill-opacity="1"><g transform="translate(104.654052, 32.949865)"><g><path d="M 0.328125 0 L 8.390625 -19.421875 L 10.234375 -19.421875 L 17.96875 0 L 15.828125 0 L 13.8125 -5.203125 L 4.59375 -5.203125 L 2.484375 0 Z M 5.3125 -6.96875 L 13.125 -6.96875 L 9.296875 -16.8125 Z M 5.3125 -6.96875 "/></g></g></g><g fill="#ffffff" fill-opacity="1"><g transform="translate(123.190182, 32.949865)"><g><path d="M 16.25 -2.109375 L 16.703125 -0.46875 C 16.140625 -0.0390625 15.394531 0.171875 14.46875 0.171875 C 13.6875 0.171875 12.972656 -0.0078125 12.328125 -0.375 C 11.691406 -0.75 11.070312 -1.375 10.46875 -2.25 L 6.84375 -7.609375 C 6.601562 -7.953125 6.316406 -8.238281 5.984375 -8.46875 C 5.660156 -8.695312 5.328125 -8.8125 4.984375 -8.8125 L 4.328125 -8.8125 L 4.328125 0 L 2.25 0 L 2.25 -19.421875 L 7.71875 -19.421875 C 9.882812 -19.421875 11.546875 -18.945312 12.703125 -18 C 13.859375 -17.0625 14.4375 -15.785156 14.4375 -14.171875 C 14.4375 -13.003906 14.148438 -12.023438 13.578125 -11.234375 C 13.003906 -10.453125 12.234375 -9.859375 11.265625 -9.453125 C 10.296875 -9.054688 9.226562 -8.859375 8.0625 -8.859375 L 7.90625 -8.859375 C 8.414062 -8.609375 8.9375 -8.085938 9.46875 -7.296875 L 12 -3.578125 C 12.351562 -3.054688 12.660156 -2.65625 12.921875 -2.375 C 13.179688 -2.101562 13.453125 -1.914062 13.734375 -1.8125 C 14.023438 -1.71875 14.378906 -1.671875 14.796875 -1.671875 C 15.066406 -1.671875 15.320312 -1.710938 15.5625 -1.796875 C 15.800781 -1.878906 16.03125 -1.984375 16.25 -2.109375 Z M 7.546875 -17.671875 L 4.328125 -17.671875 L 4.328125 -10.5 L 7.296875 -10.5 C 8.898438 -10.5 10.140625 -10.785156 11.015625 -11.359375 C 11.890625 -11.929688 12.328125 -12.847656 12.328125 -14.109375 C 12.328125 -15.222656 11.941406 -16.09375 11.171875 -16.71875 C 10.410156 -17.351562 9.203125 -17.671875 7.546875 -17.671875 Z M 7.546875 -17.671875 "/></g></g></g><g fill="#ffffff" fill-opacity="1"><g transform="translate(139.238428, 32.949865)"><g><path d="M 2.25 0 L 2.25 -19.421875 L 4.34375 -19.421875 L 4.34375 0 Z M 2.25 0 "/></g></g></g><g fill="#ffffff" fill-opacity="1"><g transform="translate(145.963954, 32.949865)"><g><path d="M 0.328125 0 L 8.390625 -19.421875 L 10.234375 -19.421875 L 17.96875 0 L 15.828125 0 L 13.8125 -5.203125 L 4.59375 -5.203125 L 2.484375 0 Z M 5.3125 -6.96875 L 13.125 -6.96875 L 9.296875 -16.8125 Z M 5.3125 -6.96875 "/></g></g></g><g fill="#ffffff" fill-opacity="1"><g transform="translate(164.500087, 32.949865)"><g><path d="M 15.34375 -19.421875 L 17.359375 -19.421875 L 17.359375 0 L 15.5625 0 L 4.265625 -15.859375 L 4.265625 0 L 2.25 0 L 2.25 -19.421875 L 4.046875 -19.421875 L 15.34375 -3.5625 Z M 15.34375 -19.421875 "/></g></g></g><g fill="#ffffff" fill-opacity="1"><g transform="translate(184.239149, 32.949865)"><g><path d="M 0.328125 0 L 8.390625 -19.421875 L 10.234375 -19.421875 L 17.96875 0 L 15.828125 0 L 13.8125 -5.203125 L 4.59375 -5.203125 L 2.484375 0 Z M 5.3125 -6.96875 L 13.125 -6.96875 L 9.296875 -16.8125 Z M 5.3125 -6.96875 "/></g></g></g></svg>